<mxfile host="app.diagrams.net" modified="2021-11-08T04:01:09.893Z" agent="5.0 (Macintosh; Intel Mac OS X 10_15_7) AppleWebKit/605.1.15 (KHTML, like Gecko) Version/15.1 Safari/605.1.15" etag="IYlQe8JeTKtFj7fSqb4N" version="15.7.0" type="github">
  <diagram id="se_EdWjztJK8_XPempFn" name="Page-1">
    <mxGraphModel dx="3258" dy="971" grid="1" gridSize="10" guides="1" tooltips="1" connect="1" arrows="1" fold="1" page="1" pageScale="1" pageWidth="827" pageHeight="1169" math="0" shadow="0">
      <root>
        <mxCell id="0" />
        <mxCell id="1" parent="0" />
        <mxCell id="S7vpxCLJ1-0W_zbgZVxM-2" value="Commande Complexe" style="rounded=1;whiteSpace=wrap;html=1;" vertex="1" parent="1">
          <mxGeometry x="330" y="40" width="120" height="60" as="geometry" />
        </mxCell>
        <mxCell id="S7vpxCLJ1-0W_zbgZVxM-5" value="" style="edgeStyle=orthogonalEdgeStyle;rounded=0;orthogonalLoop=1;jettySize=auto;html=1;dashed=1;" edge="1" parent="1" source="S7vpxCLJ1-0W_zbgZVxM-3" target="S7vpxCLJ1-0W_zbgZVxM-4">
          <mxGeometry relative="1" as="geometry" />
        </mxCell>
        <mxCell id="S7vpxCLJ1-0W_zbgZVxM-7" value="" style="edgeStyle=orthogonalEdgeStyle;rounded=0;orthogonalLoop=1;jettySize=auto;html=1;" edge="1" parent="1" source="S7vpxCLJ1-0W_zbgZVxM-3" target="S7vpxCLJ1-0W_zbgZVxM-6">
          <mxGeometry relative="1" as="geometry" />
        </mxCell>
        <mxCell id="S7vpxCLJ1-0W_zbgZVxM-3" value="Support" style="rounded=1;whiteSpace=wrap;html=1;" vertex="1" parent="1">
          <mxGeometry x="130" y="140" width="120" height="60" as="geometry" />
        </mxCell>
        <mxCell id="S7vpxCLJ1-0W_zbgZVxM-4" value="Vérification disponibilité" style="whiteSpace=wrap;html=1;rounded=1;" vertex="1" parent="1">
          <mxGeometry x="360" y="155" width="80" height="30" as="geometry" />
        </mxCell>
        <mxCell id="S7vpxCLJ1-0W_zbgZVxM-9" value="" style="edgeStyle=orthogonalEdgeStyle;rounded=0;orthogonalLoop=1;jettySize=auto;html=1;" edge="1" parent="1" source="S7vpxCLJ1-0W_zbgZVxM-6" target="S7vpxCLJ1-0W_zbgZVxM-8">
          <mxGeometry relative="1" as="geometry" />
        </mxCell>
        <mxCell id="S7vpxCLJ1-0W_zbgZVxM-11" value="" style="edgeStyle=orthogonalEdgeStyle;rounded=0;orthogonalLoop=1;jettySize=auto;html=1;dashed=1;" edge="1" parent="1" source="S7vpxCLJ1-0W_zbgZVxM-6" target="S7vpxCLJ1-0W_zbgZVxM-10">
          <mxGeometry relative="1" as="geometry" />
        </mxCell>
        <mxCell id="S7vpxCLJ1-0W_zbgZVxM-15" style="edgeStyle=orthogonalEdgeStyle;rounded=0;orthogonalLoop=1;jettySize=auto;html=1;exitX=1;exitY=0.5;exitDx=0;exitDy=0;entryX=0;entryY=0.5;entryDx=0;entryDy=0;dashed=1;" edge="1" parent="1" source="S7vpxCLJ1-0W_zbgZVxM-6" target="S7vpxCLJ1-0W_zbgZVxM-12">
          <mxGeometry relative="1" as="geometry">
            <Array as="points">
              <mxPoint x="280" y="310" />
              <mxPoint x="280" y="365" />
            </Array>
          </mxGeometry>
        </mxCell>
        <mxCell id="S7vpxCLJ1-0W_zbgZVxM-17" style="edgeStyle=orthogonalEdgeStyle;rounded=0;orthogonalLoop=1;jettySize=auto;html=1;entryX=0;entryY=0.5;entryDx=0;entryDy=0;" edge="1" parent="1" source="S7vpxCLJ1-0W_zbgZVxM-6" target="S7vpxCLJ1-0W_zbgZVxM-16">
          <mxGeometry relative="1" as="geometry">
            <Array as="points">
              <mxPoint x="270" y="310" />
              <mxPoint x="270" y="415" />
            </Array>
          </mxGeometry>
        </mxCell>
        <mxCell id="S7vpxCLJ1-0W_zbgZVxM-6" value="Laquage" style="whiteSpace=wrap;html=1;rounded=1;" vertex="1" parent="1">
          <mxGeometry x="130" y="280" width="120" height="60" as="geometry" />
        </mxCell>
        <mxCell id="S7vpxCLJ1-0W_zbgZVxM-21" value="" style="edgeStyle=orthogonalEdgeStyle;rounded=0;orthogonalLoop=1;jettySize=auto;html=1;" edge="1" parent="1" source="S7vpxCLJ1-0W_zbgZVxM-8" target="S7vpxCLJ1-0W_zbgZVxM-20">
          <mxGeometry relative="1" as="geometry" />
        </mxCell>
        <mxCell id="S7vpxCLJ1-0W_zbgZVxM-26" value="" style="edgeStyle=orthogonalEdgeStyle;rounded=0;orthogonalLoop=1;jettySize=auto;html=1;dashed=1;" edge="1" parent="1" source="S7vpxCLJ1-0W_zbgZVxM-8" target="S7vpxCLJ1-0W_zbgZVxM-25">
          <mxGeometry relative="1" as="geometry" />
        </mxCell>
        <mxCell id="S7vpxCLJ1-0W_zbgZVxM-8" value="Conditionnement" style="whiteSpace=wrap;html=1;rounded=1;" vertex="1" parent="1">
          <mxGeometry x="130" y="470" width="120" height="60" as="geometry" />
        </mxCell>
        <mxCell id="S7vpxCLJ1-0W_zbgZVxM-10" value="Realisation de prototypes" style="whiteSpace=wrap;html=1;rounded=1;" vertex="1" parent="1">
          <mxGeometry x="360" y="290" width="100" height="40" as="geometry" />
        </mxCell>
        <mxCell id="S7vpxCLJ1-0W_zbgZVxM-12" value="Realisation d&#39;une pré-série" style="whiteSpace=wrap;html=1;rounded=1;" vertex="1" parent="1">
          <mxGeometry x="360" y="350" width="110" height="30" as="geometry" />
        </mxCell>
        <mxCell id="S7vpxCLJ1-0W_zbgZVxM-16" value="Contrôle" style="whiteSpace=wrap;html=1;rounded=1;" vertex="1" parent="1">
          <mxGeometry x="360" y="400" width="110" height="30" as="geometry" />
        </mxCell>
        <mxCell id="S7vpxCLJ1-0W_zbgZVxM-19" style="edgeStyle=orthogonalEdgeStyle;rounded=0;orthogonalLoop=1;jettySize=auto;html=1;entryX=0.75;entryY=1;entryDx=0;entryDy=0;dashed=1;" edge="1" parent="1" source="S7vpxCLJ1-0W_zbgZVxM-18" target="S7vpxCLJ1-0W_zbgZVxM-3">
          <mxGeometry relative="1" as="geometry" />
        </mxCell>
        <mxCell id="S7vpxCLJ1-0W_zbgZVxM-18" value="Rajout délai" style="whiteSpace=wrap;html=1;rounded=1;" vertex="1" parent="1">
          <mxGeometry x="310" y="210" width="80" height="30" as="geometry" />
        </mxCell>
        <mxCell id="S7vpxCLJ1-0W_zbgZVxM-20" value="Simple emballage" style="whiteSpace=wrap;html=1;rounded=1;" vertex="1" parent="1">
          <mxGeometry x="360" y="480" width="110" height="40" as="geometry" />
        </mxCell>
        <mxCell id="S7vpxCLJ1-0W_zbgZVxM-24" style="edgeStyle=orthogonalEdgeStyle;rounded=0;orthogonalLoop=1;jettySize=auto;html=1;entryX=1;entryY=0.75;entryDx=0;entryDy=0;dashed=1;" edge="1" parent="1" source="S7vpxCLJ1-0W_zbgZVxM-23" target="S7vpxCLJ1-0W_zbgZVxM-8">
          <mxGeometry relative="1" as="geometry" />
        </mxCell>
        <mxCell id="S7vpxCLJ1-0W_zbgZVxM-23" value="Reconditionnement en sachet" style="whiteSpace=wrap;html=1;rounded=1;" vertex="1" parent="1">
          <mxGeometry x="360" y="530" width="110" height="40" as="geometry" />
        </mxCell>
        <mxCell id="S7vpxCLJ1-0W_zbgZVxM-28" value="" style="edgeStyle=orthogonalEdgeStyle;rounded=0;orthogonalLoop=1;jettySize=auto;html=1;" edge="1" parent="1" source="S7vpxCLJ1-0W_zbgZVxM-25" target="S7vpxCLJ1-0W_zbgZVxM-27">
          <mxGeometry relative="1" as="geometry" />
        </mxCell>
        <mxCell id="S7vpxCLJ1-0W_zbgZVxM-31" style="edgeStyle=orthogonalEdgeStyle;rounded=0;orthogonalLoop=1;jettySize=auto;html=1;entryX=0;entryY=0.5;entryDx=0;entryDy=0;" edge="1" parent="1" source="S7vpxCLJ1-0W_zbgZVxM-25" target="S7vpxCLJ1-0W_zbgZVxM-29">
          <mxGeometry relative="1" as="geometry" />
        </mxCell>
        <mxCell id="S7vpxCLJ1-0W_zbgZVxM-32" style="edgeStyle=orthogonalEdgeStyle;rounded=0;orthogonalLoop=1;jettySize=auto;html=1;entryX=0;entryY=0.5;entryDx=0;entryDy=0;" edge="1" parent="1" source="S7vpxCLJ1-0W_zbgZVxM-25" target="S7vpxCLJ1-0W_zbgZVxM-30">
          <mxGeometry relative="1" as="geometry" />
        </mxCell>
        <mxCell id="S7vpxCLJ1-0W_zbgZVxM-34" value="" style="edgeStyle=orthogonalEdgeStyle;rounded=0;orthogonalLoop=1;jettySize=auto;html=1;" edge="1" parent="1" source="S7vpxCLJ1-0W_zbgZVxM-25" target="S7vpxCLJ1-0W_zbgZVxM-33">
          <mxGeometry relative="1" as="geometry" />
        </mxCell>
        <mxCell id="S7vpxCLJ1-0W_zbgZVxM-25" value="Décor" style="whiteSpace=wrap;html=1;rounded=1;" vertex="1" parent="1">
          <mxGeometry x="130" y="610" width="120" height="60" as="geometry" />
        </mxCell>
        <mxCell id="S7vpxCLJ1-0W_zbgZVxM-27" value="Etude du projet de décor" style="whiteSpace=wrap;html=1;rounded=1;" vertex="1" parent="1">
          <mxGeometry x="370" y="625" width="100" height="30" as="geometry" />
        </mxCell>
        <mxCell id="S7vpxCLJ1-0W_zbgZVxM-29" value="Realisation d&#39;un BAT" style="whiteSpace=wrap;html=1;rounded=1;" vertex="1" parent="1">
          <mxGeometry x="370" y="670" width="100" height="30" as="geometry" />
        </mxCell>
        <mxCell id="S7vpxCLJ1-0W_zbgZVxM-30" value="Realisation d&#39;un BAT échantillon" style="whiteSpace=wrap;html=1;rounded=1;" vertex="1" parent="1">
          <mxGeometry x="370" y="720" width="100" height="30" as="geometry" />
        </mxCell>
        <mxCell id="S7vpxCLJ1-0W_zbgZVxM-36" value="" style="edgeStyle=orthogonalEdgeStyle;rounded=0;orthogonalLoop=1;jettySize=auto;html=1;" edge="1" parent="1" source="S7vpxCLJ1-0W_zbgZVxM-33" target="S7vpxCLJ1-0W_zbgZVxM-35">
          <mxGeometry relative="1" as="geometry" />
        </mxCell>
        <mxCell id="S7vpxCLJ1-0W_zbgZVxM-33" value="Couper des tubes" style="whiteSpace=wrap;html=1;rounded=1;" vertex="1" parent="1">
          <mxGeometry x="130" y="750" width="120" height="60" as="geometry" />
        </mxCell>
        <mxCell id="S7vpxCLJ1-0W_zbgZVxM-38" value="" style="edgeStyle=orthogonalEdgeStyle;rounded=0;orthogonalLoop=1;jettySize=auto;html=1;" edge="1" parent="1" source="S7vpxCLJ1-0W_zbgZVxM-35" target="S7vpxCLJ1-0W_zbgZVxM-37">
          <mxGeometry relative="1" as="geometry" />
        </mxCell>
        <mxCell id="S7vpxCLJ1-0W_zbgZVxM-35" value="Eventuel approvisionnement des couleurs de capuchons" style="whiteSpace=wrap;html=1;rounded=1;" vertex="1" parent="1">
          <mxGeometry x="130" y="890" width="120" height="60" as="geometry" />
        </mxCell>
        <mxCell id="S7vpxCLJ1-0W_zbgZVxM-40" value="" style="edgeStyle=orthogonalEdgeStyle;rounded=0;orthogonalLoop=1;jettySize=auto;html=1;" edge="1" parent="1" source="S7vpxCLJ1-0W_zbgZVxM-37" target="S7vpxCLJ1-0W_zbgZVxM-39">
          <mxGeometry relative="1" as="geometry" />
        </mxCell>
        <mxCell id="S7vpxCLJ1-0W_zbgZVxM-37" value="Capot" style="whiteSpace=wrap;html=1;rounded=1;" vertex="1" parent="1">
          <mxGeometry x="130" y="1030" width="120" height="60" as="geometry" />
        </mxCell>
        <mxCell id="S7vpxCLJ1-0W_zbgZVxM-39" value="Vérification disponibilité" style="whiteSpace=wrap;html=1;rounded=1;" vertex="1" parent="1">
          <mxGeometry x="370" y="1045" width="100" height="30" as="geometry" />
        </mxCell>
        <mxCell id="S7vpxCLJ1-0W_zbgZVxM-42" style="edgeStyle=orthogonalEdgeStyle;rounded=0;orthogonalLoop=1;jettySize=auto;html=1;entryX=1;entryY=0.75;entryDx=0;entryDy=0;dashed=1;" edge="1" parent="1" source="S7vpxCLJ1-0W_zbgZVxM-41" target="S7vpxCLJ1-0W_zbgZVxM-37">
          <mxGeometry relative="1" as="geometry" />
        </mxCell>
        <mxCell id="S7vpxCLJ1-0W_zbgZVxM-41" value="Teinter la résine" style="whiteSpace=wrap;html=1;rounded=1;" vertex="1" parent="1">
          <mxGeometry x="370" y="1090" width="100" height="30" as="geometry" />
        </mxCell>
        <mxCell id="S7vpxCLJ1-0W_zbgZVxM-101" value="" style="endArrow=none;dashed=1;html=1;dashPattern=1 3;strokeWidth=2;rounded=0;" edge="1" parent="1">
          <mxGeometry width="50" height="50" relative="1" as="geometry">
            <mxPoint x="-20" y="20" as="sourcePoint" />
            <mxPoint x="800" y="20" as="targetPoint" />
          </mxGeometry>
        </mxCell>
        <mxCell id="S7vpxCLJ1-0W_zbgZVxM-102" value="" style="endArrow=none;dashed=1;html=1;dashPattern=1 3;strokeWidth=2;rounded=0;" edge="1" parent="1">
          <mxGeometry width="50" height="50" relative="1" as="geometry">
            <mxPoint x="-20" y="1160" as="sourcePoint" />
            <mxPoint x="800.0000000000005" y="1160" as="targetPoint" />
          </mxGeometry>
        </mxCell>
        <mxCell id="S7vpxCLJ1-0W_zbgZVxM-103" value="" style="endArrow=none;dashed=1;html=1;dashPattern=1 3;strokeWidth=2;rounded=0;" edge="1" parent="1">
          <mxGeometry width="50" height="50" relative="1" as="geometry">
            <mxPoint x="800" y="1150" as="sourcePoint" />
            <mxPoint x="800" y="18.823529411764707" as="targetPoint" />
          </mxGeometry>
        </mxCell>
        <mxCell id="S7vpxCLJ1-0W_zbgZVxM-104" value="" style="endArrow=none;dashed=1;html=1;dashPattern=1 3;strokeWidth=2;rounded=0;" edge="1" parent="1">
          <mxGeometry width="50" height="50" relative="1" as="geometry">
            <mxPoint x="-20" y="1161.1799999999998" as="sourcePoint" />
            <mxPoint x="-20" y="30.003529411764703" as="targetPoint" />
          </mxGeometry>
        </mxCell>
      </root>
    </mxGraphModel>
  </diagram>
</mxfile>
